<svg width="185" height="30" viewBox="0 0 185 30" fill="none" xmlns="http://www.w3.org/2000/svg">
<path d="M29.7525 16.1448V13.647C29.7525 13.647 29.7249 13.6143 29.7064 13.5909C22.7763 12.7646 17.1832 7.06862 16.404 0.0467377L16.3487 4.95911e-05H13.8911C13.8634 4.95911e-05 13.8357 0.0233937 13.8357 0.0560753V11.1118C13.8357 11.1725 13.8818 11.2285 13.9372 11.2425L16.1458 11.7234C16.2288 11.7421 16.3072 11.6767 16.3072 11.5927V8.47393C16.3072 8.33854 16.3902 8.22182 16.5193 8.18446C16.6484 8.14245 16.7821 8.1938 16.8559 8.30585C18.1331 10.2154 19.7377 11.8401 21.6281 13.1381C21.7388 13.2128 21.7895 13.3528 21.748 13.4789C21.7111 13.6096 21.5959 13.6937 21.4575 13.6937H0.528692C0.496415 13.6937 0.46875 13.7217 0.46875 13.7543V16.2708C0.46875 16.2708 0.496415 16.3035 0.514859 16.3269C7.39431 17.1859 12.8167 22.6438 13.702 29.6096L13.7573 29.6563H16.2518C16.2795 29.6563 16.3072 29.633 16.3072 29.6003V18.7313C16.3072 18.6706 16.2611 18.6146 16.2057 18.6006L13.9971 18.129C13.9141 18.1103 13.8357 18.1757 13.8357 18.2597V21.4392C13.8357 21.5746 13.7527 21.6913 13.6236 21.7333C13.4945 21.7754 13.3608 21.724 13.287 21.6119C12.0098 19.6931 10.4006 18.0637 8.50093 16.7657C8.39027 16.691 8.33955 16.551 8.38104 16.4249C8.42254 16.2942 8.5332 16.2101 8.67153 16.2101H29.6972C29.7249 16.2101 29.7525 16.1868 29.7525 16.1494V16.1448Z" fill="#1E3532"/>
<path d="M49.9968 26.3547C49.9968 26.356 49.9958 26.3571 49.9944 26.3571C44.3826 26.356 40.4663 22.499 40.4663 16.6735C40.4663 10.8472 44.4871 6.98999 49.9968 6.98999C53.6545 6.98999 57.1912 8.95139 58.4206 12.6879C58.4676 12.8307 58.3783 12.9812 58.2314 13.0129L55.5015 13.6018C55.3673 13.6307 55.2345 13.5495 55.1917 13.4191C54.4573 11.181 52.3083 9.96734 49.9968 9.96734C46.2532 9.96734 43.7261 12.6355 43.7261 16.6688C43.7261 20.702 46.117 23.3702 49.9968 23.3702C52.4306 23.3702 54.5812 21.9056 55.2905 19.9493C55.3366 19.8224 55.4675 19.7442 55.5995 19.7728L58.2366 20.3427C58.385 20.3747 58.4742 20.5278 58.4245 20.6713C57.1442 24.3604 53.5854 26.3514 49.9992 26.3523C49.9979 26.3523 49.9968 26.3534 49.9968 26.3547ZM60.533 25.8339C60.3901 25.8339 60.2742 25.718 60.2742 25.5751V7.84803C60.2742 7.70512 60.3901 7.58926 60.533 7.58926H63.2048C63.3478 7.58926 63.4636 7.70512 63.4636 7.84803V9.69518C63.4636 9.96762 63.8636 10.0723 64.0207 9.84969C65.4622 7.80675 67.537 7.23731 69.1801 7.23731C69.5906 7.23731 69.9031 7.26128 70.2638 7.33538C70.3808 7.35941 70.4624 7.46408 70.4624 7.58349V10.3422C70.4624 10.5113 70.3028 10.6347 70.1373 10.6003C69.7008 10.5096 69.2772 10.4667 68.8325 10.4667C65.7511 10.4667 63.4636 12.2551 63.4636 16.9922V25.5751C63.4636 25.718 63.3478 25.8339 63.2048 25.8339H60.533ZM80.0822 26.3571C74.6757 26.3571 70.4859 22.3904 70.4859 16.6735C70.4859 10.9566 74.6804 6.98999 80.0822 6.98999C85.4839 6.98999 89.7489 10.9566 89.7489 16.6735C89.7489 22.3904 85.5215 26.3571 80.0822 26.3571ZM80.0822 23.375C83.7882 23.375 86.4562 20.7448 86.4562 16.6735C86.4562 12.6023 83.7882 9.9721 80.0822 9.9721C76.3761 9.9721 73.741 12.6403 73.741 16.6735C73.741 20.7067 76.4419 23.375 80.0822 23.375ZM99.0973 26.3571C94.549 26.3571 91.44 24.1414 90.8889 20.3504C90.8697 20.2187 90.9576 20.0955 91.0877 20.0673L93.8111 19.4776C93.9671 19.4438 94.1158 19.5585 94.132 19.7173C94.3955 22.296 96.2979 23.6936 99.0973 23.6936C101.385 23.6936 103.151 22.8851 103.151 20.9921C103.151 16.7116 91.5771 19.903 91.5771 12.607C91.5771 9.34429 94.8698 6.99474 98.7825 6.99474C102.889 6.99474 105.969 9.07318 106.401 12.5786C106.417 12.7082 106.329 12.8274 106.201 12.8549L103.582 13.4187C103.427 13.4521 103.279 13.3388 103.26 13.1814C103.003 11.0075 101.402 9.65819 98.7825 9.65819C96.3212 9.65819 94.8651 10.852 94.8651 12.393C94.8651 16.7068 106.575 13.6201 106.575 20.7781C106.575 24.3547 103.597 26.3571 99.0926 26.3571H99.0973ZM116.13 26.3571C111.581 26.3571 108.472 24.1414 107.921 20.3504C107.902 20.2187 107.99 20.0955 108.12 20.0673L110.844 19.4776C111 19.4438 111.148 19.5585 111.164 19.7173C111.428 22.296 113.33 23.6936 116.13 23.6936C118.417 23.6936 120.183 22.8851 120.183 20.9921C120.183 16.7116 108.609 19.903 108.609 12.607C108.609 9.34429 111.902 6.99474 115.815 6.99474C119.921 6.99474 123.001 9.07318 123.433 12.5786C123.449 12.7082 123.361 12.8274 123.234 12.8549L120.614 13.4187C120.459 13.4521 120.311 13.3388 120.293 13.1814C120.036 11.0075 118.435 9.65819 115.815 9.65819C113.354 9.65819 111.897 10.852 111.897 12.393C111.897 16.7068 123.608 13.6201 123.608 20.7781C123.608 24.3547 120.63 26.3571 116.125 26.3571H116.13ZM133.556 26.2881C133.556 26.2894 133.555 26.2905 133.554 26.2905C129.915 26.2898 127.91 24.8152 127.91 20.8875V10.7255C127.91 10.5826 127.794 10.4667 127.651 10.4667H124.98C124.837 10.4667 124.721 10.3509 124.721 10.208V7.84803C124.721 7.70512 124.837 7.58926 124.98 7.58926H127.651C127.794 7.58926 127.91 7.47341 127.91 7.33049V2.79488C127.91 2.67291 127.995 2.56749 128.115 2.54188L130.786 1.96813C130.948 1.93354 131.099 2.05635 131.099 2.22113V7.33049C131.099 7.47341 131.215 7.58926 131.358 7.58926H136.003C136.146 7.58926 136.262 7.70512 136.262 7.84803V10.208C136.262 10.3509 136.146 10.4667 136.003 10.4667H131.358C131.215 10.4667 131.099 10.5826 131.099 10.7255V20.4642C131.099 22.9564 132.105 23.3417 134.045 23.3417C134.44 23.3417 135.093 23.2494 135.601 23.156C135.763 23.1262 135.914 23.2491 135.914 23.4136V25.7549C135.914 25.8625 135.848 25.9596 135.744 25.9896C135.132 26.1677 134.033 26.2853 133.558 26.2857C133.557 26.2857 133.556 26.2868 133.556 26.2881ZM138.597 25.8339C138.454 25.8339 138.338 25.718 138.338 25.5751V7.84803C138.338 7.70512 138.454 7.58926 138.597 7.58926H141.269C141.412 7.58926 141.528 7.70512 141.528 7.84803V25.5751C141.528 25.718 141.412 25.8339 141.269 25.8339H138.597ZM138.32 3.9941C138.177 3.9941 138.061 3.87825 138.061 3.73533V0.533553C138.061 0.39064 138.177 0.274785 138.32 0.274785H141.546C141.689 0.274785 141.805 0.39064 141.805 0.533553V3.73533C141.805 3.87825 141.689 3.9941 141.546 3.9941H138.32ZM152.552 26.3571C147.042 26.3571 143.439 22.1098 143.439 16.7068C143.439 11.3038 147.042 6.98999 152.552 6.98999C155.276 6.98999 157.392 8.02659 158.851 9.62481C159.018 9.80825 159.344 9.69481 159.344 9.44647V0.304766C159.344 0.161852 159.46 0.0459976 159.603 0.0459976H162.275C162.418 0.0459976 162.533 0.161852 162.533 0.304766V25.5751C162.533 25.718 162.418 25.8339 162.275 25.8339H159.603C159.46 25.8339 159.344 25.718 159.344 25.5751V23.9386C159.344 23.6903 159.018 23.5769 158.851 23.7603C157.398 25.3514 155.309 26.3571 152.552 26.3571ZM153.073 23.413C156.92 23.413 159.447 20.5022 159.447 16.7116C159.447 12.9209 156.92 9.9388 153.073 9.9388C149.226 9.9388 146.699 12.9209 146.699 16.7116C146.699 20.5022 149.09 23.413 153.073 23.413ZM173.498 26.3547C173.497 26.3562 173.495 26.3571 173.493 26.3571C167.985 26.3554 164.351 22.3893 164.351 16.7449C164.351 11.0993 168.094 6.98999 173.257 6.98999C178.419 6.98999 181.885 10.8139 181.885 16.3929C181.885 16.7518 181.885 17.1312 181.842 17.5399C181.829 17.668 181.719 17.7627 181.59 17.7627H167.929C167.776 17.7627 167.656 17.8955 167.676 18.0472C168.145 21.7149 170.53 23.5509 173.567 23.5509C176.254 23.5509 177.881 22.491 178.898 20.6835C178.955 20.5826 179.07 20.5283 179.183 20.5524L181.759 21.0997C181.916 21.1329 182.005 21.3 181.94 21.4466C180.36 25.0315 176.676 26.3514 173.504 26.3523C173.502 26.3523 173.5 26.3532 173.498 26.3547ZM167.754 14.9436C167.728 15.0983 167.849 15.2372 168.006 15.2372H178.418C178.437 15.2372 178.452 15.2223 178.452 15.2039C178.452 11.8698 176.371 9.83417 173.186 9.83417C170.56 9.83417 168.325 11.5606 167.754 14.9436Z" fill="#1E3532"/>
</svg>
